<mxfile host="app.diagrams.net" modified="2021-07-24T08:43:10.256Z" agent="5.0 (Windows)" etag="su8gg9qw3XOhTr2EWDht" version="14.8.5" type="github">
  <diagram id="KxuiyelQ4g_LW83yEsCo" name="Page-1">
    <mxGraphModel dx="981" dy="526" grid="1" gridSize="10" guides="1" tooltips="1" connect="1" arrows="1" fold="1" page="1" pageScale="1" pageWidth="4681" pageHeight="3300" math="0" shadow="0">
      <root>
        <mxCell id="0" />
        <mxCell id="1" parent="0" />
        <mxCell id="v-2x4H90wJZ5pzWWmbDk-236" style="edgeStyle=none;rounded=0;orthogonalLoop=1;jettySize=auto;html=1;entryX=0;entryY=0.5;entryDx=0;entryDy=0;" edge="1" parent="1" source="v-2x4H90wJZ5pzWWmbDk-237" target="v-2x4H90wJZ5pzWWmbDk-255">
          <mxGeometry relative="1" as="geometry" />
        </mxCell>
        <mxCell id="v-2x4H90wJZ5pzWWmbDk-237" value="" style="ellipse;whiteSpace=wrap;html=1;aspect=fixed;" vertex="1" parent="1">
          <mxGeometry x="900" y="303.5" width="30" height="30" as="geometry" />
        </mxCell>
        <mxCell id="v-2x4H90wJZ5pzWWmbDk-239" style="edgeStyle=none;rounded=1;jumpSize=20;orthogonalLoop=1;jettySize=auto;html=1;entryX=0;entryY=0.5;entryDx=0;entryDy=0;strokeWidth=1;" edge="1" parent="1" source="v-2x4H90wJZ5pzWWmbDk-241" target="v-2x4H90wJZ5pzWWmbDk-266">
          <mxGeometry relative="1" as="geometry" />
        </mxCell>
        <mxCell id="v-2x4H90wJZ5pzWWmbDk-240" style="edgeStyle=none;rounded=1;jumpSize=20;orthogonalLoop=1;jettySize=auto;html=1;entryX=0;entryY=0.5;entryDx=0;entryDy=0;strokeWidth=1;" edge="1" parent="1" source="v-2x4H90wJZ5pzWWmbDk-241" target="v-2x4H90wJZ5pzWWmbDk-263">
          <mxGeometry relative="1" as="geometry" />
        </mxCell>
        <mxCell id="v-2x4H90wJZ5pzWWmbDk-241" value="" style="ellipse;whiteSpace=wrap;html=1;aspect=fixed;" vertex="1" parent="1">
          <mxGeometry x="900" y="343.5" width="30" height="30" as="geometry" />
        </mxCell>
        <mxCell id="v-2x4H90wJZ5pzWWmbDk-242" style="rounded=1;jumpSize=20;orthogonalLoop=1;jettySize=auto;html=1;entryX=0;entryY=0.5;entryDx=0;entryDy=0;strokeWidth=1;" edge="1" parent="1" source="v-2x4H90wJZ5pzWWmbDk-243" target="v-2x4H90wJZ5pzWWmbDk-256">
          <mxGeometry relative="1" as="geometry" />
        </mxCell>
        <mxCell id="v-2x4H90wJZ5pzWWmbDk-243" value="" style="ellipse;whiteSpace=wrap;html=1;aspect=fixed;" vertex="1" parent="1">
          <mxGeometry x="900" y="383.5" width="30" height="30" as="geometry" />
        </mxCell>
        <mxCell id="v-2x4H90wJZ5pzWWmbDk-244" style="rounded=1;jumpSize=20;orthogonalLoop=1;jettySize=auto;html=1;entryX=0;entryY=0.5;entryDx=0;entryDy=0;strokeWidth=1;" edge="1" parent="1" source="v-2x4H90wJZ5pzWWmbDk-247" target="v-2x4H90wJZ5pzWWmbDk-255">
          <mxGeometry relative="1" as="geometry" />
        </mxCell>
        <mxCell id="v-2x4H90wJZ5pzWWmbDk-246" style="edgeStyle=none;rounded=1;jumpSize=20;orthogonalLoop=1;jettySize=auto;html=1;entryX=0;entryY=0.5;entryDx=0;entryDy=0;strokeWidth=1;" edge="1" parent="1" source="v-2x4H90wJZ5pzWWmbDk-247" target="v-2x4H90wJZ5pzWWmbDk-266">
          <mxGeometry relative="1" as="geometry" />
        </mxCell>
        <mxCell id="v-2x4H90wJZ5pzWWmbDk-247" value="" style="ellipse;whiteSpace=wrap;html=1;aspect=fixed;" vertex="1" parent="1">
          <mxGeometry x="900" y="423.5" width="30" height="30" as="geometry" />
        </mxCell>
        <mxCell id="v-2x4H90wJZ5pzWWmbDk-248" style="edgeStyle=none;rounded=1;jumpSize=20;orthogonalLoop=1;jettySize=auto;html=1;entryX=0;entryY=0.5;entryDx=0;entryDy=0;strokeWidth=1;" edge="1" parent="1" source="v-2x4H90wJZ5pzWWmbDk-249" target="v-2x4H90wJZ5pzWWmbDk-255">
          <mxGeometry relative="1" as="geometry" />
        </mxCell>
        <mxCell id="v-2x4H90wJZ5pzWWmbDk-249" value="" style="ellipse;whiteSpace=wrap;html=1;aspect=fixed;" vertex="1" parent="1">
          <mxGeometry x="900" y="463.5" width="30" height="30" as="geometry" />
        </mxCell>
        <mxCell id="v-2x4H90wJZ5pzWWmbDk-254" style="edgeStyle=none;rounded=1;jumpSize=20;orthogonalLoop=1;jettySize=auto;html=1;entryX=0;entryY=0.5;entryDx=0;entryDy=0;strokeWidth=1;" edge="1" parent="1" source="v-2x4H90wJZ5pzWWmbDk-255" target="v-2x4H90wJZ5pzWWmbDk-284">
          <mxGeometry relative="1" as="geometry" />
        </mxCell>
        <mxCell id="v-2x4H90wJZ5pzWWmbDk-255" value="" style="ellipse;whiteSpace=wrap;html=1;aspect=fixed;" vertex="1" parent="1">
          <mxGeometry x="980" y="303.5" width="30" height="30" as="geometry" />
        </mxCell>
        <mxCell id="v-2x4H90wJZ5pzWWmbDk-256" value="" style="ellipse;whiteSpace=wrap;html=1;aspect=fixed;" vertex="1" parent="1">
          <mxGeometry x="980" y="343.5" width="30" height="30" as="geometry" />
        </mxCell>
        <mxCell id="v-2x4H90wJZ5pzWWmbDk-258" style="edgeStyle=none;rounded=1;jumpSize=20;orthogonalLoop=1;jettySize=auto;html=1;entryX=0;entryY=0.5;entryDx=0;entryDy=0;strokeWidth=1;" edge="1" parent="1" source="v-2x4H90wJZ5pzWWmbDk-260" target="v-2x4H90wJZ5pzWWmbDk-281">
          <mxGeometry relative="1" as="geometry" />
        </mxCell>
        <mxCell id="v-2x4H90wJZ5pzWWmbDk-259" style="edgeStyle=none;rounded=1;jumpSize=20;orthogonalLoop=1;jettySize=auto;html=1;entryX=0;entryY=0.5;entryDx=0;entryDy=0;strokeWidth=1;" edge="1" parent="1" source="v-2x4H90wJZ5pzWWmbDk-260" target="v-2x4H90wJZ5pzWWmbDk-275">
          <mxGeometry relative="1" as="geometry" />
        </mxCell>
        <mxCell id="v-2x4H90wJZ5pzWWmbDk-260" value="" style="ellipse;whiteSpace=wrap;html=1;aspect=fixed;" vertex="1" parent="1">
          <mxGeometry x="980" y="383.5" width="30" height="30" as="geometry" />
        </mxCell>
        <mxCell id="v-2x4H90wJZ5pzWWmbDk-261" style="edgeStyle=none;rounded=1;jumpSize=20;orthogonalLoop=1;jettySize=auto;html=1;entryX=0;entryY=0.5;entryDx=0;entryDy=0;strokeWidth=1;" edge="1" parent="1" source="v-2x4H90wJZ5pzWWmbDk-263" target="v-2x4H90wJZ5pzWWmbDk-275">
          <mxGeometry relative="1" as="geometry" />
        </mxCell>
        <mxCell id="v-2x4H90wJZ5pzWWmbDk-262" style="edgeStyle=none;rounded=1;jumpSize=20;orthogonalLoop=1;jettySize=auto;html=1;entryX=0;entryY=0.5;entryDx=0;entryDy=0;strokeWidth=1;" edge="1" parent="1" source="v-2x4H90wJZ5pzWWmbDk-263" target="v-2x4H90wJZ5pzWWmbDk-284">
          <mxGeometry relative="1" as="geometry" />
        </mxCell>
        <mxCell id="v-2x4H90wJZ5pzWWmbDk-263" value="" style="ellipse;whiteSpace=wrap;html=1;aspect=fixed;" vertex="1" parent="1">
          <mxGeometry x="980" y="423.5" width="30" height="30" as="geometry" />
        </mxCell>
        <mxCell id="v-2x4H90wJZ5pzWWmbDk-264" style="edgeStyle=none;rounded=1;jumpSize=20;orthogonalLoop=1;jettySize=auto;html=1;entryX=0;entryY=0.5;entryDx=0;entryDy=0;strokeWidth=1;" edge="1" parent="1" source="v-2x4H90wJZ5pzWWmbDk-266" target="v-2x4H90wJZ5pzWWmbDk-277">
          <mxGeometry relative="1" as="geometry" />
        </mxCell>
        <mxCell id="v-2x4H90wJZ5pzWWmbDk-266" value="" style="ellipse;whiteSpace=wrap;html=1;aspect=fixed;" vertex="1" parent="1">
          <mxGeometry x="980" y="463.5" width="30" height="30" as="geometry" />
        </mxCell>
        <mxCell id="v-2x4H90wJZ5pzWWmbDk-269" value="Dense layers" style="text;html=1;strokeColor=none;fillColor=none;align=center;verticalAlign=middle;whiteSpace=wrap;rounded=0;" vertex="1" parent="1">
          <mxGeometry x="950" y="502.5" width="250" height="20" as="geometry" />
        </mxCell>
        <mxCell id="v-2x4H90wJZ5pzWWmbDk-270" value="Flatten" style="text;html=1;strokeColor=none;fillColor=none;align=center;verticalAlign=middle;whiteSpace=wrap;rounded=0;" vertex="1" parent="1">
          <mxGeometry x="790" y="502.5" width="250" height="20" as="geometry" />
        </mxCell>
        <mxCell id="v-2x4H90wJZ5pzWWmbDk-274" style="edgeStyle=none;rounded=1;jumpSize=20;orthogonalLoop=1;jettySize=auto;html=1;entryX=0;entryY=0.5;entryDx=0;entryDy=0;strokeWidth=1;" edge="1" parent="1" source="v-2x4H90wJZ5pzWWmbDk-275" target="v-2x4H90wJZ5pzWWmbDk-304">
          <mxGeometry relative="1" as="geometry" />
        </mxCell>
        <mxCell id="v-2x4H90wJZ5pzWWmbDk-275" value="" style="ellipse;whiteSpace=wrap;html=1;aspect=fixed;" vertex="1" parent="1">
          <mxGeometry x="1060" y="303.5" width="30" height="30" as="geometry" />
        </mxCell>
        <mxCell id="v-2x4H90wJZ5pzWWmbDk-276" style="edgeStyle=none;rounded=1;jumpSize=20;orthogonalLoop=1;jettySize=auto;html=1;entryX=0;entryY=0.5;entryDx=0;entryDy=0;strokeWidth=1;" edge="1" parent="1" source="v-2x4H90wJZ5pzWWmbDk-277" target="v-2x4H90wJZ5pzWWmbDk-301">
          <mxGeometry relative="1" as="geometry" />
        </mxCell>
        <mxCell id="v-2x4H90wJZ5pzWWmbDk-277" value="" style="ellipse;whiteSpace=wrap;html=1;aspect=fixed;" vertex="1" parent="1">
          <mxGeometry x="1060" y="343.5" width="30" height="30" as="geometry" />
        </mxCell>
        <mxCell id="v-2x4H90wJZ5pzWWmbDk-278" style="edgeStyle=none;rounded=1;jumpSize=20;orthogonalLoop=1;jettySize=auto;html=1;entryX=0;entryY=0.5;entryDx=0;entryDy=0;strokeWidth=1;" edge="1" parent="1" source="v-2x4H90wJZ5pzWWmbDk-279" target="v-2x4H90wJZ5pzWWmbDk-292">
          <mxGeometry relative="1" as="geometry" />
        </mxCell>
        <mxCell id="v-2x4H90wJZ5pzWWmbDk-279" value="" style="ellipse;whiteSpace=wrap;html=1;aspect=fixed;" vertex="1" parent="1">
          <mxGeometry x="1060" y="383.5" width="30" height="30" as="geometry" />
        </mxCell>
        <mxCell id="v-2x4H90wJZ5pzWWmbDk-281" value="" style="ellipse;whiteSpace=wrap;html=1;aspect=fixed;" vertex="1" parent="1">
          <mxGeometry x="1060" y="423.5" width="30" height="30" as="geometry" />
        </mxCell>
        <mxCell id="v-2x4H90wJZ5pzWWmbDk-282" style="edgeStyle=none;rounded=1;jumpSize=20;orthogonalLoop=1;jettySize=auto;html=1;entryX=0;entryY=0.5;entryDx=0;entryDy=0;strokeWidth=1;" edge="1" parent="1" source="v-2x4H90wJZ5pzWWmbDk-284" target="v-2x4H90wJZ5pzWWmbDk-295">
          <mxGeometry relative="1" as="geometry" />
        </mxCell>
        <mxCell id="v-2x4H90wJZ5pzWWmbDk-283" style="edgeStyle=none;rounded=1;jumpSize=20;orthogonalLoop=1;jettySize=auto;html=1;entryX=0;entryY=0.5;entryDx=0;entryDy=0;strokeWidth=1;" edge="1" parent="1" source="v-2x4H90wJZ5pzWWmbDk-284" target="v-2x4H90wJZ5pzWWmbDk-304">
          <mxGeometry relative="1" as="geometry" />
        </mxCell>
        <mxCell id="v-2x4H90wJZ5pzWWmbDk-284" value="" style="ellipse;whiteSpace=wrap;html=1;aspect=fixed;" vertex="1" parent="1">
          <mxGeometry x="1060" y="463.5" width="30" height="30" as="geometry" />
        </mxCell>
        <mxCell id="v-2x4H90wJZ5pzWWmbDk-290" style="edgeStyle=none;rounded=1;jumpSize=20;orthogonalLoop=1;jettySize=auto;html=1;entryX=0;entryY=0.5;entryDx=0;entryDy=0;strokeWidth=1;" edge="1" parent="1" source="v-2x4H90wJZ5pzWWmbDk-292" target="v-2x4H90wJZ5pzWWmbDk-310">
          <mxGeometry relative="1" as="geometry" />
        </mxCell>
        <mxCell id="v-2x4H90wJZ5pzWWmbDk-291" style="edgeStyle=none;rounded=1;jumpSize=20;orthogonalLoop=1;jettySize=auto;html=1;strokeWidth=1;entryX=-0.001;entryY=0.557;entryDx=0;entryDy=0;entryPerimeter=0;" edge="1" parent="1" source="v-2x4H90wJZ5pzWWmbDk-292" target="v-2x4H90wJZ5pzWWmbDk-309">
          <mxGeometry relative="1" as="geometry">
            <mxPoint x="1240" y="398.5000000000001" as="targetPoint" />
          </mxGeometry>
        </mxCell>
        <mxCell id="v-2x4H90wJZ5pzWWmbDk-292" value="" style="ellipse;whiteSpace=wrap;html=1;aspect=fixed;" vertex="1" parent="1">
          <mxGeometry x="1140" y="303.5" width="30" height="30" as="geometry" />
        </mxCell>
        <mxCell id="v-2x4H90wJZ5pzWWmbDk-293" style="edgeStyle=none;rounded=1;jumpSize=20;orthogonalLoop=1;jettySize=auto;html=1;entryX=0;entryY=0.5;entryDx=0;entryDy=0;strokeWidth=1;" edge="1" parent="1" source="v-2x4H90wJZ5pzWWmbDk-295" target="v-2x4H90wJZ5pzWWmbDk-309">
          <mxGeometry relative="1" as="geometry" />
        </mxCell>
        <mxCell id="v-2x4H90wJZ5pzWWmbDk-294" style="edgeStyle=none;rounded=1;jumpSize=20;orthogonalLoop=1;jettySize=auto;html=1;strokeWidth=1;" edge="1" parent="1" source="v-2x4H90wJZ5pzWWmbDk-295">
          <mxGeometry relative="1" as="geometry">
            <mxPoint x="1250" y="438.5000000000001" as="targetPoint" />
          </mxGeometry>
        </mxCell>
        <mxCell id="v-2x4H90wJZ5pzWWmbDk-295" value="" style="ellipse;whiteSpace=wrap;html=1;aspect=fixed;" vertex="1" parent="1">
          <mxGeometry x="1140" y="343.5" width="30" height="30" as="geometry" />
        </mxCell>
        <mxCell id="v-2x4H90wJZ5pzWWmbDk-296" style="edgeStyle=none;rounded=1;jumpSize=20;orthogonalLoop=1;jettySize=auto;html=1;entryX=0;entryY=0.5;entryDx=0;entryDy=0;strokeWidth=1;" edge="1" parent="1" source="v-2x4H90wJZ5pzWWmbDk-298" target="v-2x4H90wJZ5pzWWmbDk-310">
          <mxGeometry relative="1" as="geometry" />
        </mxCell>
        <mxCell id="v-2x4H90wJZ5pzWWmbDk-297" style="edgeStyle=none;rounded=1;jumpSize=20;orthogonalLoop=1;jettySize=auto;html=1;strokeWidth=1;" edge="1" parent="1" source="v-2x4H90wJZ5pzWWmbDk-298">
          <mxGeometry relative="1" as="geometry">
            <mxPoint x="1250" y="398.5000000000001" as="targetPoint" />
          </mxGeometry>
        </mxCell>
        <mxCell id="v-2x4H90wJZ5pzWWmbDk-298" value="" style="ellipse;whiteSpace=wrap;html=1;aspect=fixed;" vertex="1" parent="1">
          <mxGeometry x="1140" y="383.5" width="30" height="30" as="geometry" />
        </mxCell>
        <mxCell id="v-2x4H90wJZ5pzWWmbDk-299" style="edgeStyle=none;rounded=1;jumpSize=20;orthogonalLoop=1;jettySize=auto;html=1;entryX=0;entryY=0.5;entryDx=0;entryDy=0;strokeWidth=1;" edge="1" parent="1" source="v-2x4H90wJZ5pzWWmbDk-301" target="v-2x4H90wJZ5pzWWmbDk-309">
          <mxGeometry relative="1" as="geometry" />
        </mxCell>
        <mxCell id="v-2x4H90wJZ5pzWWmbDk-300" style="edgeStyle=none;rounded=1;jumpSize=20;orthogonalLoop=1;jettySize=auto;html=1;strokeWidth=1;entryX=0;entryY=0.5;entryDx=0;entryDy=0;" edge="1" parent="1" source="v-2x4H90wJZ5pzWWmbDk-301" target="v-2x4H90wJZ5pzWWmbDk-310">
          <mxGeometry relative="1" as="geometry">
            <mxPoint x="1240" y="438.5000000000001" as="targetPoint" />
          </mxGeometry>
        </mxCell>
        <mxCell id="v-2x4H90wJZ5pzWWmbDk-301" value="" style="ellipse;whiteSpace=wrap;html=1;aspect=fixed;" vertex="1" parent="1">
          <mxGeometry x="1140" y="423.5" width="30" height="30" as="geometry" />
        </mxCell>
        <mxCell id="v-2x4H90wJZ5pzWWmbDk-302" style="edgeStyle=none;rounded=1;jumpSize=20;orthogonalLoop=1;jettySize=auto;html=1;strokeWidth=1;" edge="1" parent="1" source="v-2x4H90wJZ5pzWWmbDk-304">
          <mxGeometry relative="1" as="geometry">
            <mxPoint x="1250" y="438.5000000000001" as="targetPoint" />
          </mxGeometry>
        </mxCell>
        <mxCell id="v-2x4H90wJZ5pzWWmbDk-303" style="edgeStyle=none;rounded=1;jumpSize=20;orthogonalLoop=1;jettySize=auto;html=1;strokeWidth=1;entryX=0;entryY=0.5;entryDx=0;entryDy=0;" edge="1" parent="1" source="v-2x4H90wJZ5pzWWmbDk-304" target="v-2x4H90wJZ5pzWWmbDk-309">
          <mxGeometry relative="1" as="geometry">
            <mxPoint x="1240" y="398.5000000000001" as="targetPoint" />
          </mxGeometry>
        </mxCell>
        <mxCell id="v-2x4H90wJZ5pzWWmbDk-304" value="" style="ellipse;whiteSpace=wrap;html=1;aspect=fixed;" vertex="1" parent="1">
          <mxGeometry x="1140" y="463.5" width="30" height="30" as="geometry" />
        </mxCell>
        <mxCell id="v-2x4H90wJZ5pzWWmbDk-308" value="&lt;div&gt;Output&lt;/div&gt;" style="text;html=1;strokeColor=none;fillColor=none;align=center;verticalAlign=middle;whiteSpace=wrap;rounded=0;" vertex="1" parent="1">
          <mxGeometry x="1140" y="502.5" width="250" height="20" as="geometry" />
        </mxCell>
        <mxCell id="v-2x4H90wJZ5pzWWmbDk-309" value="" style="ellipse;whiteSpace=wrap;html=1;aspect=fixed;fillColor=#dae8fc;strokeColor=#6c8ebf;" vertex="1" parent="1">
          <mxGeometry x="1246" y="383.5" width="30" height="30" as="geometry" />
        </mxCell>
        <mxCell id="v-2x4H90wJZ5pzWWmbDk-310" value="" style="ellipse;whiteSpace=wrap;html=1;aspect=fixed;fillColor=#d5e8d4;strokeColor=#82b366;" vertex="1" parent="1">
          <mxGeometry x="1246" y="423.5" width="30" height="30" as="geometry" />
        </mxCell>
        <mxCell id="v-2x4H90wJZ5pzWWmbDk-449" style="edgeStyle=none;rounded=0;orthogonalLoop=1;jettySize=auto;html=1;entryX=0;entryY=0.5;entryDx=0;entryDy=0;" edge="1" parent="1" source="v-2x4H90wJZ5pzWWmbDk-337">
          <mxGeometry relative="1" as="geometry">
            <mxPoint x="505" y="277.5" as="targetPoint" />
          </mxGeometry>
        </mxCell>
        <mxCell id="v-2x4H90wJZ5pzWWmbDk-337" value="&lt;div&gt;ACGGTCGGA&lt;/div&gt;" style="text;html=1;strokeColor=#6c8ebf;fillColor=#dae8fc;align=center;verticalAlign=middle;whiteSpace=wrap;rounded=0;" vertex="1" parent="1">
          <mxGeometry x="345" y="261.5" width="100" height="29" as="geometry" />
        </mxCell>
        <mxCell id="v-2x4H90wJZ5pzWWmbDk-450" style="edgeStyle=none;rounded=0;orthogonalLoop=1;jettySize=auto;html=1;entryX=0;entryY=0.5;entryDx=0;entryDy=0;" edge="1" parent="1">
          <mxGeometry relative="1" as="geometry">
            <mxPoint x="444" y="472.22727272727275" as="sourcePoint" />
            <mxPoint x="504" y="472.4999999999999" as="targetPoint" />
          </mxGeometry>
        </mxCell>
        <mxCell id="v-2x4H90wJZ5pzWWmbDk-339" value="GCTTATTCG" style="text;html=1;strokeColor=#82b366;fillColor=#d5e8d4;align=center;verticalAlign=middle;whiteSpace=wrap;rounded=0;" vertex="1" parent="1">
          <mxGeometry x="344" y="457.5" width="100" height="29" as="geometry" />
        </mxCell>
        <mxCell id="v-2x4H90wJZ5pzWWmbDk-342" style="edgeStyle=orthogonalEdgeStyle;rounded=0;orthogonalLoop=1;jettySize=auto;html=1;" edge="1" parent="1">
          <mxGeometry relative="1" as="geometry">
            <mxPoint x="587" y="277.4000000000001" as="sourcePoint" />
            <mxPoint x="650" y="277.3600000000001" as="targetPoint" />
            <Array as="points">
              <mxPoint x="650" y="277.36" />
            </Array>
          </mxGeometry>
        </mxCell>
        <mxCell id="v-2x4H90wJZ5pzWWmbDk-344" value="" style="whiteSpace=wrap;html=1;aspect=fixed;fillColor=#dae8fc;strokeColor=#6c8ebf;" vertex="1" parent="1">
          <mxGeometry x="650" y="232.5" width="30" height="30" as="geometry" />
        </mxCell>
        <mxCell id="v-2x4H90wJZ5pzWWmbDk-345" value="" style="whiteSpace=wrap;html=1;aspect=fixed;fillColor=#dae8fc;strokeColor=#6c8ebf;" vertex="1" parent="1">
          <mxGeometry x="680" y="232.5" width="30" height="30" as="geometry" />
        </mxCell>
        <mxCell id="v-2x4H90wJZ5pzWWmbDk-346" value="" style="whiteSpace=wrap;html=1;aspect=fixed;fillColor=#dae8fc;strokeColor=#6c8ebf;" vertex="1" parent="1">
          <mxGeometry x="710" y="232.5" width="30" height="30" as="geometry" />
        </mxCell>
        <mxCell id="v-2x4H90wJZ5pzWWmbDk-347" value="" style="whiteSpace=wrap;html=1;aspect=fixed;fillColor=#dae8fc;strokeColor=#6c8ebf;" vertex="1" parent="1">
          <mxGeometry x="650" y="262.5" width="30" height="30" as="geometry" />
        </mxCell>
        <mxCell id="v-2x4H90wJZ5pzWWmbDk-348" value="" style="whiteSpace=wrap;html=1;aspect=fixed;fillColor=#dae8fc;strokeColor=#6c8ebf;" vertex="1" parent="1">
          <mxGeometry x="680" y="262.5" width="30" height="30" as="geometry" />
        </mxCell>
        <mxCell id="v-2x4H90wJZ5pzWWmbDk-349" value="" style="whiteSpace=wrap;html=1;aspect=fixed;fillColor=#dae8fc;strokeColor=#6c8ebf;" vertex="1" parent="1">
          <mxGeometry x="710" y="262.5" width="30" height="30" as="geometry" />
        </mxCell>
        <mxCell id="v-2x4H90wJZ5pzWWmbDk-350" value="" style="whiteSpace=wrap;html=1;aspect=fixed;fillColor=#dae8fc;strokeColor=#6c8ebf;" vertex="1" parent="1">
          <mxGeometry x="650" y="292.5" width="30" height="30" as="geometry" />
        </mxCell>
        <mxCell id="v-2x4H90wJZ5pzWWmbDk-351" value="" style="whiteSpace=wrap;html=1;aspect=fixed;fillColor=#dae8fc;strokeColor=#6c8ebf;" vertex="1" parent="1">
          <mxGeometry x="680" y="292.5" width="30" height="30" as="geometry" />
        </mxCell>
        <mxCell id="v-2x4H90wJZ5pzWWmbDk-352" value="" style="whiteSpace=wrap;html=1;aspect=fixed;fillColor=#dae8fc;strokeColor=#6c8ebf;" vertex="1" parent="1">
          <mxGeometry x="710" y="292.5" width="30" height="30" as="geometry" />
        </mxCell>
        <mxCell id="v-2x4H90wJZ5pzWWmbDk-353" value="" style="whiteSpace=wrap;html=1;aspect=fixed;fillColor=#d5e8d4;strokeColor=#82b366;" vertex="1" parent="1">
          <mxGeometry x="660" y="242.5" width="30" height="30" as="geometry" />
        </mxCell>
        <mxCell id="v-2x4H90wJZ5pzWWmbDk-354" value="" style="whiteSpace=wrap;html=1;aspect=fixed;fillColor=#d5e8d4;strokeColor=#82b366;" vertex="1" parent="1">
          <mxGeometry x="690" y="242.5" width="30" height="30" as="geometry" />
        </mxCell>
        <mxCell id="v-2x4H90wJZ5pzWWmbDk-355" value="" style="whiteSpace=wrap;html=1;aspect=fixed;fillColor=#d5e8d4;strokeColor=#82b366;" vertex="1" parent="1">
          <mxGeometry x="720" y="242.5" width="30" height="30" as="geometry" />
        </mxCell>
        <mxCell id="v-2x4H90wJZ5pzWWmbDk-356" value="" style="whiteSpace=wrap;html=1;aspect=fixed;fillColor=#d5e8d4;strokeColor=#82b366;" vertex="1" parent="1">
          <mxGeometry x="660" y="272.5" width="30" height="30" as="geometry" />
        </mxCell>
        <mxCell id="v-2x4H90wJZ5pzWWmbDk-357" value="" style="whiteSpace=wrap;html=1;aspect=fixed;fillColor=#d5e8d4;strokeColor=#82b366;" vertex="1" parent="1">
          <mxGeometry x="690" y="272.5" width="30" height="30" as="geometry" />
        </mxCell>
        <mxCell id="v-2x4H90wJZ5pzWWmbDk-358" value="" style="whiteSpace=wrap;html=1;aspect=fixed;fillColor=#d5e8d4;strokeColor=#82b366;" vertex="1" parent="1">
          <mxGeometry x="720" y="272.5" width="30" height="30" as="geometry" />
        </mxCell>
        <mxCell id="v-2x4H90wJZ5pzWWmbDk-359" value="" style="whiteSpace=wrap;html=1;aspect=fixed;fillColor=#d5e8d4;strokeColor=#82b366;" vertex="1" parent="1">
          <mxGeometry x="660" y="302.5" width="30" height="30" as="geometry" />
        </mxCell>
        <mxCell id="v-2x4H90wJZ5pzWWmbDk-360" value="" style="whiteSpace=wrap;html=1;aspect=fixed;fillColor=#d5e8d4;strokeColor=#82b366;" vertex="1" parent="1">
          <mxGeometry x="690" y="302.5" width="30" height="30" as="geometry" />
        </mxCell>
        <mxCell id="v-2x4H90wJZ5pzWWmbDk-361" value="" style="whiteSpace=wrap;html=1;aspect=fixed;fillColor=#d5e8d4;strokeColor=#82b366;" vertex="1" parent="1">
          <mxGeometry x="720" y="302.5" width="30" height="30" as="geometry" />
        </mxCell>
        <mxCell id="v-2x4H90wJZ5pzWWmbDk-362" value="" style="whiteSpace=wrap;html=1;aspect=fixed;fillColor=#ffe6cc;strokeColor=#d79b00;" vertex="1" parent="1">
          <mxGeometry x="670" y="252.5" width="30" height="30" as="geometry" />
        </mxCell>
        <mxCell id="v-2x4H90wJZ5pzWWmbDk-363" value="" style="whiteSpace=wrap;html=1;aspect=fixed;fillColor=#ffe6cc;strokeColor=#d79b00;" vertex="1" parent="1">
          <mxGeometry x="700" y="252.5" width="30" height="30" as="geometry" />
        </mxCell>
        <mxCell id="v-2x4H90wJZ5pzWWmbDk-364" value="" style="whiteSpace=wrap;html=1;aspect=fixed;fillColor=#ffe6cc;strokeColor=#d79b00;" vertex="1" parent="1">
          <mxGeometry x="730" y="252.5" width="30" height="30" as="geometry" />
        </mxCell>
        <mxCell id="v-2x4H90wJZ5pzWWmbDk-365" value="" style="whiteSpace=wrap;html=1;aspect=fixed;fillColor=#ffe6cc;strokeColor=#d79b00;" vertex="1" parent="1">
          <mxGeometry x="670" y="282.5" width="30" height="30" as="geometry" />
        </mxCell>
        <mxCell id="v-2x4H90wJZ5pzWWmbDk-366" value="" style="whiteSpace=wrap;html=1;aspect=fixed;fillColor=#ffe6cc;strokeColor=#d79b00;" vertex="1" parent="1">
          <mxGeometry x="700" y="282.5" width="30" height="30" as="geometry" />
        </mxCell>
        <mxCell id="v-2x4H90wJZ5pzWWmbDk-367" value="" style="whiteSpace=wrap;html=1;aspect=fixed;fillColor=#ffe6cc;strokeColor=#d79b00;" vertex="1" parent="1">
          <mxGeometry x="730" y="282.5" width="30" height="30" as="geometry" />
        </mxCell>
        <mxCell id="v-2x4H90wJZ5pzWWmbDk-368" value="" style="whiteSpace=wrap;html=1;aspect=fixed;fillColor=#ffe6cc;strokeColor=#d79b00;" vertex="1" parent="1">
          <mxGeometry x="670" y="312.5" width="30" height="30" as="geometry" />
        </mxCell>
        <mxCell id="v-2x4H90wJZ5pzWWmbDk-369" value="" style="whiteSpace=wrap;html=1;aspect=fixed;fillColor=#ffe6cc;strokeColor=#d79b00;" vertex="1" parent="1">
          <mxGeometry x="700" y="312.5" width="30" height="30" as="geometry" />
        </mxCell>
        <mxCell id="v-2x4H90wJZ5pzWWmbDk-370" value="" style="whiteSpace=wrap;html=1;aspect=fixed;fillColor=#ffe6cc;strokeColor=#d79b00;" vertex="1" parent="1">
          <mxGeometry x="730" y="312.5" width="30" height="30" as="geometry" />
        </mxCell>
        <mxCell id="v-2x4H90wJZ5pzWWmbDk-371" value="" style="whiteSpace=wrap;html=1;aspect=fixed;fillColor=#f8cecc;strokeColor=#b85450;" vertex="1" parent="1">
          <mxGeometry x="680" y="262.5" width="30" height="30" as="geometry" />
        </mxCell>
        <mxCell id="v-2x4H90wJZ5pzWWmbDk-372" value="" style="whiteSpace=wrap;html=1;aspect=fixed;fillColor=#f8cecc;strokeColor=#b85450;" vertex="1" parent="1">
          <mxGeometry x="710" y="262.5" width="30" height="30" as="geometry" />
        </mxCell>
        <mxCell id="v-2x4H90wJZ5pzWWmbDk-373" value="" style="whiteSpace=wrap;html=1;aspect=fixed;fillColor=#f8cecc;strokeColor=#b85450;" vertex="1" parent="1">
          <mxGeometry x="740" y="262.5" width="30" height="30" as="geometry" />
        </mxCell>
        <mxCell id="v-2x4H90wJZ5pzWWmbDk-374" value="" style="whiteSpace=wrap;html=1;aspect=fixed;fillColor=#f8cecc;strokeColor=#b85450;" vertex="1" parent="1">
          <mxGeometry x="680" y="292.5" width="30" height="30" as="geometry" />
        </mxCell>
        <mxCell id="v-2x4H90wJZ5pzWWmbDk-375" value="" style="whiteSpace=wrap;html=1;aspect=fixed;fillColor=#f8cecc;strokeColor=#b85450;" vertex="1" parent="1">
          <mxGeometry x="710" y="292.5" width="30" height="30" as="geometry" />
        </mxCell>
        <mxCell id="v-2x4H90wJZ5pzWWmbDk-451" style="edgeStyle=orthogonalEdgeStyle;curved=1;rounded=0;orthogonalLoop=1;jettySize=auto;html=1;entryX=0;entryY=0.5;entryDx=0;entryDy=0;" edge="1" parent="1" source="v-2x4H90wJZ5pzWWmbDk-376" target="v-2x4H90wJZ5pzWWmbDk-243">
          <mxGeometry relative="1" as="geometry" />
        </mxCell>
        <mxCell id="v-2x4H90wJZ5pzWWmbDk-376" value="" style="whiteSpace=wrap;html=1;aspect=fixed;fillColor=#f8cecc;strokeColor=#b85450;" vertex="1" parent="1">
          <mxGeometry x="740" y="292.5" width="30" height="30" as="geometry" />
        </mxCell>
        <mxCell id="v-2x4H90wJZ5pzWWmbDk-377" value="" style="whiteSpace=wrap;html=1;aspect=fixed;fillColor=#f8cecc;strokeColor=#b85450;" vertex="1" parent="1">
          <mxGeometry x="680" y="322.5" width="30" height="30" as="geometry" />
        </mxCell>
        <mxCell id="v-2x4H90wJZ5pzWWmbDk-378" value="" style="whiteSpace=wrap;html=1;aspect=fixed;fillColor=#f8cecc;strokeColor=#b85450;" vertex="1" parent="1">
          <mxGeometry x="710" y="322.5" width="30" height="30" as="geometry" />
        </mxCell>
        <mxCell id="v-2x4H90wJZ5pzWWmbDk-379" value="" style="whiteSpace=wrap;html=1;aspect=fixed;fillColor=#f8cecc;strokeColor=#b85450;" vertex="1" parent="1">
          <mxGeometry x="740" y="322.5" width="30" height="30" as="geometry" />
        </mxCell>
        <mxCell id="v-2x4H90wJZ5pzWWmbDk-395" style="edgeStyle=orthogonalEdgeStyle;rounded=0;orthogonalLoop=1;jettySize=auto;html=1;" edge="1" parent="1">
          <mxGeometry relative="1" as="geometry">
            <mxPoint x="586" y="472.4000000000001" as="sourcePoint" />
            <mxPoint x="649" y="472.3600000000001" as="targetPoint" />
            <Array as="points">
              <mxPoint x="649" y="472.36" />
            </Array>
          </mxGeometry>
        </mxCell>
        <mxCell id="v-2x4H90wJZ5pzWWmbDk-397" value="" style="whiteSpace=wrap;html=1;aspect=fixed;fillColor=#dae8fc;strokeColor=#6c8ebf;" vertex="1" parent="1">
          <mxGeometry x="649" y="427.5" width="30" height="30" as="geometry" />
        </mxCell>
        <mxCell id="v-2x4H90wJZ5pzWWmbDk-398" value="" style="whiteSpace=wrap;html=1;aspect=fixed;fillColor=#dae8fc;strokeColor=#6c8ebf;" vertex="1" parent="1">
          <mxGeometry x="679" y="427.5" width="30" height="30" as="geometry" />
        </mxCell>
        <mxCell id="v-2x4H90wJZ5pzWWmbDk-399" value="" style="whiteSpace=wrap;html=1;aspect=fixed;fillColor=#dae8fc;strokeColor=#6c8ebf;" vertex="1" parent="1">
          <mxGeometry x="709" y="427.5" width="30" height="30" as="geometry" />
        </mxCell>
        <mxCell id="v-2x4H90wJZ5pzWWmbDk-400" value="" style="whiteSpace=wrap;html=1;aspect=fixed;fillColor=#dae8fc;strokeColor=#6c8ebf;" vertex="1" parent="1">
          <mxGeometry x="649" y="457.5" width="30" height="30" as="geometry" />
        </mxCell>
        <mxCell id="v-2x4H90wJZ5pzWWmbDk-401" value="" style="whiteSpace=wrap;html=1;aspect=fixed;fillColor=#dae8fc;strokeColor=#6c8ebf;" vertex="1" parent="1">
          <mxGeometry x="679" y="457.5" width="30" height="30" as="geometry" />
        </mxCell>
        <mxCell id="v-2x4H90wJZ5pzWWmbDk-402" value="" style="whiteSpace=wrap;html=1;aspect=fixed;fillColor=#dae8fc;strokeColor=#6c8ebf;" vertex="1" parent="1">
          <mxGeometry x="709" y="457.5" width="30" height="30" as="geometry" />
        </mxCell>
        <mxCell id="v-2x4H90wJZ5pzWWmbDk-403" value="" style="whiteSpace=wrap;html=1;aspect=fixed;fillColor=#dae8fc;strokeColor=#6c8ebf;" vertex="1" parent="1">
          <mxGeometry x="649" y="487.5" width="30" height="30" as="geometry" />
        </mxCell>
        <mxCell id="v-2x4H90wJZ5pzWWmbDk-404" value="" style="whiteSpace=wrap;html=1;aspect=fixed;fillColor=#dae8fc;strokeColor=#6c8ebf;" vertex="1" parent="1">
          <mxGeometry x="679" y="487.5" width="30" height="30" as="geometry" />
        </mxCell>
        <mxCell id="v-2x4H90wJZ5pzWWmbDk-405" value="" style="whiteSpace=wrap;html=1;aspect=fixed;fillColor=#dae8fc;strokeColor=#6c8ebf;" vertex="1" parent="1">
          <mxGeometry x="709" y="487.5" width="30" height="30" as="geometry" />
        </mxCell>
        <mxCell id="v-2x4H90wJZ5pzWWmbDk-406" value="" style="whiteSpace=wrap;html=1;aspect=fixed;fillColor=#d5e8d4;strokeColor=#82b366;" vertex="1" parent="1">
          <mxGeometry x="659" y="437.5" width="30" height="30" as="geometry" />
        </mxCell>
        <mxCell id="v-2x4H90wJZ5pzWWmbDk-407" value="" style="whiteSpace=wrap;html=1;aspect=fixed;fillColor=#d5e8d4;strokeColor=#82b366;" vertex="1" parent="1">
          <mxGeometry x="689" y="437.5" width="30" height="30" as="geometry" />
        </mxCell>
        <mxCell id="v-2x4H90wJZ5pzWWmbDk-408" value="" style="whiteSpace=wrap;html=1;aspect=fixed;fillColor=#d5e8d4;strokeColor=#82b366;" vertex="1" parent="1">
          <mxGeometry x="719" y="437.5" width="30" height="30" as="geometry" />
        </mxCell>
        <mxCell id="v-2x4H90wJZ5pzWWmbDk-409" value="" style="whiteSpace=wrap;html=1;aspect=fixed;fillColor=#d5e8d4;strokeColor=#82b366;" vertex="1" parent="1">
          <mxGeometry x="659" y="467.5" width="30" height="30" as="geometry" />
        </mxCell>
        <mxCell id="v-2x4H90wJZ5pzWWmbDk-410" value="" style="whiteSpace=wrap;html=1;aspect=fixed;fillColor=#d5e8d4;strokeColor=#82b366;" vertex="1" parent="1">
          <mxGeometry x="689" y="467.5" width="30" height="30" as="geometry" />
        </mxCell>
        <mxCell id="v-2x4H90wJZ5pzWWmbDk-411" value="" style="whiteSpace=wrap;html=1;aspect=fixed;fillColor=#d5e8d4;strokeColor=#82b366;" vertex="1" parent="1">
          <mxGeometry x="719" y="467.5" width="30" height="30" as="geometry" />
        </mxCell>
        <mxCell id="v-2x4H90wJZ5pzWWmbDk-412" value="" style="whiteSpace=wrap;html=1;aspect=fixed;fillColor=#d5e8d4;strokeColor=#82b366;" vertex="1" parent="1">
          <mxGeometry x="659" y="497.5" width="30" height="30" as="geometry" />
        </mxCell>
        <mxCell id="v-2x4H90wJZ5pzWWmbDk-413" value="" style="whiteSpace=wrap;html=1;aspect=fixed;fillColor=#d5e8d4;strokeColor=#82b366;" vertex="1" parent="1">
          <mxGeometry x="689" y="497.5" width="30" height="30" as="geometry" />
        </mxCell>
        <mxCell id="v-2x4H90wJZ5pzWWmbDk-414" value="" style="whiteSpace=wrap;html=1;aspect=fixed;fillColor=#d5e8d4;strokeColor=#82b366;" vertex="1" parent="1">
          <mxGeometry x="719" y="497.5" width="30" height="30" as="geometry" />
        </mxCell>
        <mxCell id="v-2x4H90wJZ5pzWWmbDk-415" value="" style="whiteSpace=wrap;html=1;aspect=fixed;fillColor=#ffe6cc;strokeColor=#d79b00;" vertex="1" parent="1">
          <mxGeometry x="669" y="447.5" width="30" height="30" as="geometry" />
        </mxCell>
        <mxCell id="v-2x4H90wJZ5pzWWmbDk-416" value="" style="whiteSpace=wrap;html=1;aspect=fixed;fillColor=#ffe6cc;strokeColor=#d79b00;" vertex="1" parent="1">
          <mxGeometry x="699" y="447.5" width="30" height="30" as="geometry" />
        </mxCell>
        <mxCell id="v-2x4H90wJZ5pzWWmbDk-417" value="" style="whiteSpace=wrap;html=1;aspect=fixed;fillColor=#ffe6cc;strokeColor=#d79b00;" vertex="1" parent="1">
          <mxGeometry x="729" y="447.5" width="30" height="30" as="geometry" />
        </mxCell>
        <mxCell id="v-2x4H90wJZ5pzWWmbDk-418" value="" style="whiteSpace=wrap;html=1;aspect=fixed;fillColor=#ffe6cc;strokeColor=#d79b00;" vertex="1" parent="1">
          <mxGeometry x="669" y="477.5" width="30" height="30" as="geometry" />
        </mxCell>
        <mxCell id="v-2x4H90wJZ5pzWWmbDk-419" value="" style="whiteSpace=wrap;html=1;aspect=fixed;fillColor=#ffe6cc;strokeColor=#d79b00;" vertex="1" parent="1">
          <mxGeometry x="699" y="477.5" width="30" height="30" as="geometry" />
        </mxCell>
        <mxCell id="v-2x4H90wJZ5pzWWmbDk-420" value="" style="whiteSpace=wrap;html=1;aspect=fixed;fillColor=#ffe6cc;strokeColor=#d79b00;" vertex="1" parent="1">
          <mxGeometry x="729" y="477.5" width="30" height="30" as="geometry" />
        </mxCell>
        <mxCell id="v-2x4H90wJZ5pzWWmbDk-421" value="" style="whiteSpace=wrap;html=1;aspect=fixed;fillColor=#ffe6cc;strokeColor=#d79b00;" vertex="1" parent="1">
          <mxGeometry x="669" y="507.5" width="30" height="30" as="geometry" />
        </mxCell>
        <mxCell id="v-2x4H90wJZ5pzWWmbDk-422" value="" style="whiteSpace=wrap;html=1;aspect=fixed;fillColor=#ffe6cc;strokeColor=#d79b00;" vertex="1" parent="1">
          <mxGeometry x="699" y="507.5" width="30" height="30" as="geometry" />
        </mxCell>
        <mxCell id="v-2x4H90wJZ5pzWWmbDk-423" value="" style="whiteSpace=wrap;html=1;aspect=fixed;fillColor=#ffe6cc;strokeColor=#d79b00;" vertex="1" parent="1">
          <mxGeometry x="729" y="507.5" width="30" height="30" as="geometry" />
        </mxCell>
        <mxCell id="v-2x4H90wJZ5pzWWmbDk-424" value="" style="whiteSpace=wrap;html=1;aspect=fixed;fillColor=#f8cecc;strokeColor=#b85450;" vertex="1" parent="1">
          <mxGeometry x="679" y="457.5" width="30" height="30" as="geometry" />
        </mxCell>
        <mxCell id="v-2x4H90wJZ5pzWWmbDk-425" value="" style="whiteSpace=wrap;html=1;aspect=fixed;fillColor=#f8cecc;strokeColor=#b85450;" vertex="1" parent="1">
          <mxGeometry x="709" y="457.5" width="30" height="30" as="geometry" />
        </mxCell>
        <mxCell id="v-2x4H90wJZ5pzWWmbDk-426" value="" style="whiteSpace=wrap;html=1;aspect=fixed;fillColor=#f8cecc;strokeColor=#b85450;" vertex="1" parent="1">
          <mxGeometry x="739" y="457.5" width="30" height="30" as="geometry" />
        </mxCell>
        <mxCell id="v-2x4H90wJZ5pzWWmbDk-427" value="" style="whiteSpace=wrap;html=1;aspect=fixed;fillColor=#f8cecc;strokeColor=#b85450;" vertex="1" parent="1">
          <mxGeometry x="679" y="487.5" width="30" height="30" as="geometry" />
        </mxCell>
        <mxCell id="v-2x4H90wJZ5pzWWmbDk-428" value="" style="whiteSpace=wrap;html=1;aspect=fixed;fillColor=#f8cecc;strokeColor=#b85450;" vertex="1" parent="1">
          <mxGeometry x="709" y="487.5" width="30" height="30" as="geometry" />
        </mxCell>
        <mxCell id="v-2x4H90wJZ5pzWWmbDk-452" style="edgeStyle=orthogonalEdgeStyle;curved=1;rounded=0;orthogonalLoop=1;jettySize=auto;html=1;" edge="1" parent="1" source="v-2x4H90wJZ5pzWWmbDk-429">
          <mxGeometry relative="1" as="geometry">
            <mxPoint x="900" y="400" as="targetPoint" />
            <Array as="points">
              <mxPoint x="830" y="503" />
              <mxPoint x="830" y="400" />
            </Array>
          </mxGeometry>
        </mxCell>
        <mxCell id="v-2x4H90wJZ5pzWWmbDk-429" value="" style="whiteSpace=wrap;html=1;aspect=fixed;fillColor=#f8cecc;strokeColor=#b85450;" vertex="1" parent="1">
          <mxGeometry x="739" y="487.5" width="30" height="30" as="geometry" />
        </mxCell>
        <mxCell id="v-2x4H90wJZ5pzWWmbDk-430" value="" style="whiteSpace=wrap;html=1;aspect=fixed;fillColor=#f8cecc;strokeColor=#b85450;" vertex="1" parent="1">
          <mxGeometry x="679" y="517.5" width="30" height="30" as="geometry" />
        </mxCell>
        <mxCell id="v-2x4H90wJZ5pzWWmbDk-431" value="" style="whiteSpace=wrap;html=1;aspect=fixed;fillColor=#f8cecc;strokeColor=#b85450;" vertex="1" parent="1">
          <mxGeometry x="709" y="517.5" width="30" height="30" as="geometry" />
        </mxCell>
        <mxCell id="v-2x4H90wJZ5pzWWmbDk-432" value="" style="whiteSpace=wrap;html=1;aspect=fixed;fillColor=#f8cecc;strokeColor=#b85450;" vertex="1" parent="1">
          <mxGeometry x="739" y="517.5" width="30" height="30" as="geometry" />
        </mxCell>
        <mxCell id="v-2x4H90wJZ5pzWWmbDk-447" value="&lt;div&gt;CNN layers&lt;/div&gt;" style="text;html=1;strokeColor=none;fillColor=none;align=center;verticalAlign=middle;whiteSpace=wrap;rounded=0;" vertex="1" parent="1">
          <mxGeometry x="580" y="363.5" width="250" height="20" as="geometry" />
        </mxCell>
        <mxCell id="v-2x4H90wJZ5pzWWmbDk-448" value="&lt;div&gt;CNN layers&lt;/div&gt;" style="text;html=1;strokeColor=none;fillColor=none;align=center;verticalAlign=middle;whiteSpace=wrap;rounded=0;" vertex="1" parent="1">
          <mxGeometry x="589" y="554" width="250" height="20" as="geometry" />
        </mxCell>
        <mxCell id="v-2x4H90wJZ5pzWWmbDk-454" value="" style="rounded=0;whiteSpace=wrap;html=1;shadow=1;glass=0;sketch=0;fillColor=#f5f5f5;strokeColor=#666666;fontColor=#333333;" vertex="1" parent="1">
          <mxGeometry x="505" y="212" width="28" height="26" as="geometry" />
        </mxCell>
        <mxCell id="v-2x4H90wJZ5pzWWmbDk-455" value="DNA2vec 6kmer by 100d" style="text;html=1;strokeColor=none;fillColor=none;align=center;verticalAlign=middle;whiteSpace=wrap;rounded=0;" vertex="1" parent="1">
          <mxGeometry x="467" y="353" width="160" height="20" as="geometry" />
        </mxCell>
        <mxCell id="v-2x4H90wJZ5pzWWmbDk-456" value="" style="rounded=0;whiteSpace=wrap;html=1;shadow=1;glass=0;sketch=0;fillColor=#f5f5f5;strokeColor=#666666;fontColor=#333333;" vertex="1" parent="1">
          <mxGeometry x="533" y="212" width="28" height="26" as="geometry" />
        </mxCell>
        <mxCell id="v-2x4H90wJZ5pzWWmbDk-457" value="" style="rounded=0;whiteSpace=wrap;html=1;shadow=1;glass=0;sketch=0;fillColor=#f5f5f5;strokeColor=#666666;fontColor=#333333;" vertex="1" parent="1">
          <mxGeometry x="561" y="212" width="28" height="26" as="geometry" />
        </mxCell>
        <mxCell id="v-2x4H90wJZ5pzWWmbDk-458" value="" style="rounded=0;whiteSpace=wrap;html=1;shadow=1;glass=0;sketch=0;fillColor=#f5f5f5;strokeColor=#666666;fontColor=#333333;" vertex="1" parent="1">
          <mxGeometry x="505" y="238" width="28" height="26" as="geometry" />
        </mxCell>
        <mxCell id="v-2x4H90wJZ5pzWWmbDk-459" value="" style="rounded=0;whiteSpace=wrap;html=1;shadow=1;glass=0;sketch=0;fillColor=#f5f5f5;strokeColor=#666666;fontColor=#333333;" vertex="1" parent="1">
          <mxGeometry x="533" y="238" width="28" height="26" as="geometry" />
        </mxCell>
        <mxCell id="v-2x4H90wJZ5pzWWmbDk-460" value="" style="rounded=0;whiteSpace=wrap;html=1;shadow=1;glass=0;sketch=0;fillColor=#f5f5f5;strokeColor=#666666;fontColor=#333333;" vertex="1" parent="1">
          <mxGeometry x="561" y="238" width="28" height="26" as="geometry" />
        </mxCell>
        <mxCell id="v-2x4H90wJZ5pzWWmbDk-461" value="" style="rounded=0;whiteSpace=wrap;html=1;shadow=1;glass=0;sketch=0;fillColor=#f5f5f5;strokeColor=#666666;fontColor=#333333;" vertex="1" parent="1">
          <mxGeometry x="505" y="264" width="28" height="26" as="geometry" />
        </mxCell>
        <mxCell id="v-2x4H90wJZ5pzWWmbDk-462" value="" style="rounded=0;whiteSpace=wrap;html=1;shadow=1;glass=0;sketch=0;fillColor=#f5f5f5;strokeColor=#666666;fontColor=#333333;" vertex="1" parent="1">
          <mxGeometry x="533" y="264" width="28" height="26" as="geometry" />
        </mxCell>
        <mxCell id="v-2x4H90wJZ5pzWWmbDk-463" value="" style="rounded=0;whiteSpace=wrap;html=1;shadow=1;glass=0;sketch=0;fillColor=#f5f5f5;strokeColor=#666666;fontColor=#333333;" vertex="1" parent="1">
          <mxGeometry x="561" y="264" width="28" height="26" as="geometry" />
        </mxCell>
        <mxCell id="v-2x4H90wJZ5pzWWmbDk-464" value="" style="rounded=0;whiteSpace=wrap;html=1;shadow=1;glass=0;sketch=0;fillColor=#f5f5f5;strokeColor=#666666;fontColor=#333333;" vertex="1" parent="1">
          <mxGeometry x="505" y="290" width="28" height="26" as="geometry" />
        </mxCell>
        <mxCell id="v-2x4H90wJZ5pzWWmbDk-465" value="" style="rounded=0;whiteSpace=wrap;html=1;shadow=1;glass=0;sketch=0;fillColor=#f5f5f5;strokeColor=#666666;fontColor=#333333;" vertex="1" parent="1">
          <mxGeometry x="533" y="290" width="28" height="26" as="geometry" />
        </mxCell>
        <mxCell id="v-2x4H90wJZ5pzWWmbDk-466" value="" style="rounded=0;whiteSpace=wrap;html=1;shadow=1;glass=0;sketch=0;fillColor=#f5f5f5;strokeColor=#666666;fontColor=#333333;" vertex="1" parent="1">
          <mxGeometry x="561" y="290" width="28" height="26" as="geometry" />
        </mxCell>
        <mxCell id="v-2x4H90wJZ5pzWWmbDk-467" value="" style="rounded=0;whiteSpace=wrap;html=1;shadow=1;glass=0;sketch=0;fillColor=#f5f5f5;strokeColor=#666666;fontColor=#333333;" vertex="1" parent="1">
          <mxGeometry x="505" y="316" width="28" height="26" as="geometry" />
        </mxCell>
        <mxCell id="v-2x4H90wJZ5pzWWmbDk-468" value="" style="rounded=0;whiteSpace=wrap;html=1;shadow=1;glass=0;sketch=0;fillColor=#f5f5f5;strokeColor=#666666;fontColor=#333333;" vertex="1" parent="1">
          <mxGeometry x="533" y="316" width="28" height="26" as="geometry" />
        </mxCell>
        <mxCell id="v-2x4H90wJZ5pzWWmbDk-469" value="" style="rounded=0;whiteSpace=wrap;html=1;shadow=1;glass=0;sketch=0;fillColor=#f5f5f5;strokeColor=#666666;fontColor=#333333;" vertex="1" parent="1">
          <mxGeometry x="561" y="316" width="28" height="26" as="geometry" />
        </mxCell>
        <mxCell id="v-2x4H90wJZ5pzWWmbDk-470" value="&lt;font color=&quot;#0000CC&quot;&gt;ACGTAG&lt;/font&gt;" style="text;whiteSpace=wrap;html=1;" vertex="1" parent="1">
          <mxGeometry x="451" y="212" width="70" height="30" as="geometry" />
        </mxCell>
        <mxCell id="v-2x4H90wJZ5pzWWmbDk-471" value="&lt;font color=&quot;#0000CC&quot;&gt;ACG ...&lt;/font&gt;" style="text;whiteSpace=wrap;html=1;" vertex="1" parent="1">
          <mxGeometry x="451" y="238" width="70" height="30" as="geometry" />
        </mxCell>
        <mxCell id="v-2x4H90wJZ5pzWWmbDk-472" value="" style="rounded=0;whiteSpace=wrap;html=1;shadow=1;glass=0;sketch=0;fillColor=#f5f5f5;strokeColor=#666666;fontColor=#333333;" vertex="1" parent="1">
          <mxGeometry x="504" y="408" width="28" height="26" as="geometry" />
        </mxCell>
        <mxCell id="v-2x4H90wJZ5pzWWmbDk-473" value="DNA2vec 6kmer by 100d" style="text;html=1;strokeColor=none;fillColor=none;align=center;verticalAlign=middle;whiteSpace=wrap;rounded=0;" vertex="1" parent="1">
          <mxGeometry x="466" y="549" width="160" height="20" as="geometry" />
        </mxCell>
        <mxCell id="v-2x4H90wJZ5pzWWmbDk-474" value="" style="rounded=0;whiteSpace=wrap;html=1;shadow=1;glass=0;sketch=0;fillColor=#f5f5f5;strokeColor=#666666;fontColor=#333333;" vertex="1" parent="1">
          <mxGeometry x="532" y="408" width="28" height="26" as="geometry" />
        </mxCell>
        <mxCell id="v-2x4H90wJZ5pzWWmbDk-475" value="" style="rounded=0;whiteSpace=wrap;html=1;shadow=1;glass=0;sketch=0;fillColor=#f5f5f5;strokeColor=#666666;fontColor=#333333;" vertex="1" parent="1">
          <mxGeometry x="560" y="408" width="28" height="26" as="geometry" />
        </mxCell>
        <mxCell id="v-2x4H90wJZ5pzWWmbDk-476" value="" style="rounded=0;whiteSpace=wrap;html=1;shadow=1;glass=0;sketch=0;fillColor=#f5f5f5;strokeColor=#666666;fontColor=#333333;" vertex="1" parent="1">
          <mxGeometry x="504" y="434" width="28" height="26" as="geometry" />
        </mxCell>
        <mxCell id="v-2x4H90wJZ5pzWWmbDk-477" value="" style="rounded=0;whiteSpace=wrap;html=1;shadow=1;glass=0;sketch=0;fillColor=#f5f5f5;strokeColor=#666666;fontColor=#333333;" vertex="1" parent="1">
          <mxGeometry x="532" y="434" width="28" height="26" as="geometry" />
        </mxCell>
        <mxCell id="v-2x4H90wJZ5pzWWmbDk-478" value="" style="rounded=0;whiteSpace=wrap;html=1;shadow=1;glass=0;sketch=0;fillColor=#f5f5f5;strokeColor=#666666;fontColor=#333333;" vertex="1" parent="1">
          <mxGeometry x="560" y="434" width="28" height="26" as="geometry" />
        </mxCell>
        <mxCell id="v-2x4H90wJZ5pzWWmbDk-479" value="" style="rounded=0;whiteSpace=wrap;html=1;shadow=1;glass=0;sketch=0;fillColor=#f5f5f5;strokeColor=#666666;fontColor=#333333;" vertex="1" parent="1">
          <mxGeometry x="504" y="460" width="28" height="26" as="geometry" />
        </mxCell>
        <mxCell id="v-2x4H90wJZ5pzWWmbDk-480" value="" style="rounded=0;whiteSpace=wrap;html=1;shadow=1;glass=0;sketch=0;fillColor=#f5f5f5;strokeColor=#666666;fontColor=#333333;" vertex="1" parent="1">
          <mxGeometry x="532" y="460" width="28" height="26" as="geometry" />
        </mxCell>
        <mxCell id="v-2x4H90wJZ5pzWWmbDk-481" value="" style="rounded=0;whiteSpace=wrap;html=1;shadow=1;glass=0;sketch=0;fillColor=#f5f5f5;strokeColor=#666666;fontColor=#333333;" vertex="1" parent="1">
          <mxGeometry x="560" y="460" width="28" height="26" as="geometry" />
        </mxCell>
        <mxCell id="v-2x4H90wJZ5pzWWmbDk-482" value="" style="rounded=0;whiteSpace=wrap;html=1;shadow=1;glass=0;sketch=0;fillColor=#f5f5f5;strokeColor=#666666;fontColor=#333333;" vertex="1" parent="1">
          <mxGeometry x="504" y="486" width="28" height="26" as="geometry" />
        </mxCell>
        <mxCell id="v-2x4H90wJZ5pzWWmbDk-483" value="" style="rounded=0;whiteSpace=wrap;html=1;shadow=1;glass=0;sketch=0;fillColor=#f5f5f5;strokeColor=#666666;fontColor=#333333;" vertex="1" parent="1">
          <mxGeometry x="532" y="486" width="28" height="26" as="geometry" />
        </mxCell>
        <mxCell id="v-2x4H90wJZ5pzWWmbDk-484" value="" style="rounded=0;whiteSpace=wrap;html=1;shadow=1;glass=0;sketch=0;fillColor=#f5f5f5;strokeColor=#666666;fontColor=#333333;" vertex="1" parent="1">
          <mxGeometry x="560" y="486" width="28" height="26" as="geometry" />
        </mxCell>
        <mxCell id="v-2x4H90wJZ5pzWWmbDk-485" value="" style="rounded=0;whiteSpace=wrap;html=1;shadow=1;glass=0;sketch=0;fillColor=#f5f5f5;strokeColor=#666666;fontColor=#333333;" vertex="1" parent="1">
          <mxGeometry x="504" y="512" width="28" height="26" as="geometry" />
        </mxCell>
        <mxCell id="v-2x4H90wJZ5pzWWmbDk-486" value="" style="rounded=0;whiteSpace=wrap;html=1;shadow=1;glass=0;sketch=0;fillColor=#f5f5f5;strokeColor=#666666;fontColor=#333333;" vertex="1" parent="1">
          <mxGeometry x="532" y="512" width="28" height="26" as="geometry" />
        </mxCell>
        <mxCell id="v-2x4H90wJZ5pzWWmbDk-487" value="" style="rounded=0;whiteSpace=wrap;html=1;shadow=1;glass=0;sketch=0;fillColor=#f5f5f5;strokeColor=#666666;fontColor=#333333;" vertex="1" parent="1">
          <mxGeometry x="560" y="512" width="28" height="26" as="geometry" />
        </mxCell>
        <mxCell id="v-2x4H90wJZ5pzWWmbDk-488" value="&lt;font color=&quot;#0000CC&quot;&gt;ACGTAG&lt;/font&gt;" style="text;whiteSpace=wrap;html=1;" vertex="1" parent="1">
          <mxGeometry x="450" y="408" width="70" height="30" as="geometry" />
        </mxCell>
        <mxCell id="v-2x4H90wJZ5pzWWmbDk-489" value="&lt;font color=&quot;#0000CC&quot;&gt;ACG ...&lt;/font&gt;" style="text;whiteSpace=wrap;html=1;" vertex="1" parent="1">
          <mxGeometry x="450" y="434" width="70" height="30" as="geometry" />
        </mxCell>
        <mxCell id="v-2x4H90wJZ5pzWWmbDk-490" value="Interaction Region1 Sequence" style="text;html=1;strokeColor=none;fillColor=none;align=center;verticalAlign=middle;whiteSpace=wrap;rounded=0;" vertex="1" parent="1">
          <mxGeometry x="314" y="297.5" width="160" height="20" as="geometry" />
        </mxCell>
        <mxCell id="v-2x4H90wJZ5pzWWmbDk-491" value="Interaction Region2 Sequence" style="text;html=1;strokeColor=none;fillColor=none;align=center;verticalAlign=middle;whiteSpace=wrap;rounded=0;" vertex="1" parent="1">
          <mxGeometry x="314" y="493.5" width="160" height="20" as="geometry" />
        </mxCell>
      </root>
    </mxGraphModel>
  </diagram>
</mxfile>
